<svg xmlns="http://www.w3.org/2000/svg" width="347" height="192" fill="none"><g clip-path="url(#a)"><path fill="#E3E3FD" d="M58.676 129.818c-2.563-7.506-4.693-15.224-4.782-23.061-.104-8.997 1.94-18.013 5.815-26.118 2.493-5.208 5.753-10.052 9.727-14.239 11.161-11.759 26.803-18.183 42.468-22.258 17.684-4.595 36.427-6.592 54.199-2.376 28.726 6.819 51.087 28.564 74.105 47.116 15.046 12.123 31.859 24.444 37.638 42.921 3.47 11.113 2.396 23.281-1.167 34.364-3.564 11.082-9.49 21.239-15.765 31.036-9.212 14.384-20.954 29.333-37.727 32.352-8.704 1.569-17.602-.365-26.325-1.837a254.915 254.915 0 0 0-52.069-3.368c-11.508.439-23.273 1.628-34.367-1.48-20.072-5.625-44.064-29.876-45.116-51.509-.285-5.867 1.26-11.73.76-17.586-.404-4.736-2.116-9.216-3.705-13.651-1.215-3.387-2.5-6.826-3.69-10.313v.007Z"/><path fill="#000" d="m99.792 86.246-46.869-9.804-.61-.128a1.686 1.686 0 0 0-1.996 1.298 1.71 1.71 0 0 0 .142 1.103l18.81 37.581a1.684 1.684 0 0 0 2.73.397l12.828-13.672a1.016 1.016 0 0 1 1.623.199l2.673 4.868a1.64 1.64 0 0 0 1.848.831h.014a1.651 1.651 0 0 0 1.296-1.574l.461-11.277c.007-.141.04-.28.101-.407.068-.124.155-.239.263-.33l7.41-6.15a1.68 1.68 0 0 0 .219-2.37 1.671 1.671 0 0 0-.95-.571l.007.006Zm.3 2.425-7.41 6.15a1.487 1.487 0 0 0-.26.265L52.846 77.444a.674.674 0 0 0-.926.45.675.675 0 0 0 .263.713l32.593 23.614a1.673 1.673 0 0 0-.437.336L71.51 116.225a1.008 1.008 0 0 1-1.64-.238L51.066 78.412a1.01 1.01 0 0 1 1.11-1.44l.624.132 46.852 9.801a1.01 1.01 0 0 1 .438 1.766h.003Z"/><path stroke="#000" stroke-miterlimit="10" stroke-width=".5" d="m99.792 86.246-46.869-9.804-.61-.128a1.686 1.686 0 0 0-1.996 1.298 1.71 1.71 0 0 0 .142 1.103l18.81 37.581a1.684 1.684 0 0 0 2.73.397l12.828-13.672a1.016 1.016 0 0 1 1.623.199l2.673 4.868a1.64 1.64 0 0 0 1.848.831h.014a1.651 1.651 0 0 0 1.296-1.574l.461-11.277c.007-.141.04-.28.101-.407.068-.124.155-.239.263-.33l7.41-6.15a1.68 1.68 0 0 0 .219-2.37 1.671 1.671 0 0 0-.95-.571l.007.006Zm.3 2.425-7.41 6.15a1.487 1.487 0 0 0-.26.265 1.736 1.736 0 0 0-.3.602c-.03.118-.046.235-.05.356l-.46 11.278a.977.977 0 0 1-.779.941h-.006a.973.973 0 0 1-1.111-.494l-2.674-4.872a1.679 1.679 0 0 0-1.387-.868h-.114a1.655 1.655 0 0 0-1.202.532L71.51 116.229a1.008 1.008 0 0 1-1.64-.239L51.066 78.412a1.01 1.01 0 0 1 1.11-1.44l.624.132 46.852 9.801a1.01 1.01 0 0 1 .438 1.766h.003Z"/><path stroke="#000" stroke-linecap="round" stroke-linejoin="round" stroke-width=".5" d="m92.57 95.154-.275.615-.172-.074L52.58 78.067l33.075 23.967.088.067-.394.545-.576-.417-32.59-23.618a.672.672 0 0 1 .663-1.163L92.423 95.09l.148.067v-.003Z"/><path fill="#fff" stroke="#000" stroke-miterlimit="10" d="M104.607 106.701c.111.484.182.978.215 1.476l38.715 22.306 9.41-5.41 10.033 13.117-15.726 11.193a7.216 7.216 0 0 1-8.649-.212l-39.924-31.455c-4.898 1.812-10.343-.686-12.157-5.581-1.815-4.893.687-10.33 5.589-12.142 4.898-1.812 10.342.686 12.157 5.582.135.366.249.743.34 1.123l-.003.003Z"/><path fill="#fff" d="M219.761 183.041a10.621 10.621 0 0 0 10.326 1.264c4.31-1.833 6.831-6.245 9.046-10.369l6.548-12.194-6.561 2.077c-4.718 1.494-9.548 3.045-13.435 6.106-3.886 3.062-6.682 8.006-5.792 12.868"/><path fill="#000" d="M215.431 198.907c.67-4.158 1.336-8.377 2.954-12.296 1.433-3.478 3.596-6.647 6.699-8.837a17.258 17.258 0 0 1 5.429-2.553c.506-.137.694.655.187.792a16.442 16.442 0 0 0-8.525 5.613c-2.41 3.033-3.773 6.727-4.658 10.461-.534 2.26-.905 4.551-1.273 6.843a.424.424 0 0 1-.42.396.41.41 0 0 1-.396-.42l.003.001Z"/><path fill="#fff" d="M137.253 167.76a17.552 17.552 0 0 1-17.031 2.37c-7.173-2.907-11.463-10.13-15.236-16.883-3.719-6.658-7.44-13.315-11.158-19.974l10.898 3.251c7.838 2.337 15.865 4.773 22.37 9.724 6.505 4.952 11.26 13.047 9.927 21.112"/><path fill="#000" d="M144.901 194.121c-1.204-6.978-2.409-14.049-5.254-20.574-2.527-5.795-6.317-11.031-11.735-14.573a29.83 29.83 0 0 0-9.459-4.045c-.882-.209-1.199 1.134-.321 1.344 5.861 1.394 11.068 4.564 14.873 9.055 4.217 4.998 6.624 11.157 8.197 17.407.95 3.782 1.618 7.624 2.281 11.465a.704.704 0 0 0 .731.645.716.716 0 0 0 .684-.723l.003-.001Z"/><path fill="#fff" d="M131.955 185.512c-1.15 4.413-4.471 7.849-8.763 9.061-5.445 1.468-11.159-.948-16.367-3.316l-15.401-7 7.747-2.934c5.572-2.109 11.294-4.245 17.27-4.186 5.977.059 12.35 2.79 15.199 8.235"/><path fill="#000" d="M148.616 197.186c-6.907-6.532-14.792-13.722-24.704-13.635a20.894 20.894 0 0 0-7.995 1.674c-.799.338-.17 1.577.626 1.24 4.243-1.784 8.984-2.002 13.424-.616 4.269 1.323 8.077 3.845 11.533 6.71 2.118 1.754 4.119 3.65 6.119 5.543.641.605 1.643-.304.997-.916Z"/><path fill="#fff" stroke="#000" stroke-miterlimit="10" d="m194.328 142.141 1.71 16.701.034.343.509 4.952 4.174 40.779v.007l.812 7.912a9.603 9.603 0 0 0-.839 1.348 9.704 9.704 0 0 0 .283 9.297 85.169 85.169 0 0 0 6.027-1.748 90.837 90.837 0 0 0 11.959-4.896 9.703 9.703 0 0 0-3.27-5.665l-4.191-50.298-.367-4.412-1.195-14.32h-15.646ZM206.316 96.652c8.645-8.634 8.645-22.631 0-31.265s-22.661-8.634-31.306 0-8.645 22.631 0 31.265 22.661 8.634 31.306 0Z"/><path fill="#4550E5" d="m149.405 172.259.01.127a4.063 4.063 0 0 0 3.175 3.618l33.035 7.206a4.048 4.048 0 0 0 4.774-2.875c.071-.262.149-.531.233-.81 1.114-3.783 3.104-8.927 5.949-15.393.643-1.463 1.33-2.996 2.064-4.597.134-.296.272-.595.407-.894a551.358 551.358 0 0 1 5.06-10.645 26.38 26.38 0 0 0 2.051-5.861 26.761 26.761 0 0 0-1.357-16.015 26.358 26.358 0 0 0-1.465-3.009 26.949 26.949 0 0 0-23.412-13.638 27.122 27.122 0 0 0-18.683 7.572 26.405 26.405 0 0 0-6.817 11.025 99.934 99.934 0 0 0-2.99 12.011c-.448 2.41-.811 4.788-1.104 7.104a146.51 146.51 0 0 0-.93 25.074Z"/><path fill="#000" d="M134.857 214.511a89.676 89.676 0 0 0 66.154 8.97 84.642 84.642 0 0 0 6.027-1.748 150.307 150.307 0 0 0-6.283-16.809v-.006c-4.046-9.062-7.763-14.607-9.575-17.054a3.146 3.146 0 0 1-.447-2.855l.562-1.685a4.04 4.04 0 0 0-.663-3.792c-.038-.051-.078-.098-.118-.145-14.717-16.745-40.371-7.609-40.631-7.515l-.128.047-.08.111c-.088.121-.176.239-.26.363-6.955 9.734-11.578 24.697-14.558 42.118Z"/><path fill="#4550E5" d="M144.133 130.139c.141.511.377.985.7 1.399l6.606 8.547 3.148 4.078 2.761 3.571a4.057 4.057 0 0 0 6.13.336l10.027-10.396 4.138-4.294c4.905-3.82 5.78-10.891 1.952-15.786-3.811-4.883-10.858-5.77-15.763-1.987l-2.586 1.442-15.181 8.48a4.057 4.057 0 0 0-1.932 4.61ZM187.921 135.499l.633 20.191v.128a4.059 4.059 0 0 0 4.778 3.86l2.74-.494.7-.128 2.276-.41 12.117-2.186 2.32-.417a4.056 4.056 0 0 0 3.121-5.282l-6.535-19.324c-1.141-6.106-7.02-10.134-13.137-8.994-6.091 1.133-10.121 6.967-9.016 13.056h.003Z"/><path fill="#000" d="M187.16 75.93c-5.689 3.891-13.16 7.885-18.971 3.746-3.815-2.72-5.017-7.753-3.472-12.172 2.781-7.945 10.427-11.445 17.737-14.125 9.504-3.487 19.85-6.26 29.661-3.762 9.811 2.498 18.48 11.983 16.709 21.936-1.424 8.006-8.986 14.667-7.912 22.726 1.081 8.11 10.215 12.381 18.279 13.83 8.063 1.449 17.09 1.916 22.884 7.7 7.393 7.38 5.548 20.571-1.411 28.361-6.959 7.791-17.453 11.325-27.628 13.726-13.477 3.18-28.055 4.852-40.856-.427-12.8-5.279-22.763-19.492-19.052-32.817 1.565-5.629 5.255-10.387 8.821-15.017 3.565-4.63 7.178-9.475 8.538-15.157 1.134-4.735.293-10.232-2.849-13.786a3.99 3.99 0 0 1-.535-4.667l.054-.094h.003Z"/></g><defs><clipPath id="a"><path fill="#fff" d="M0 0h347v192H0z"/></clipPath></defs></svg>